<?xml version="1.0" encoding="UTF-8"?>
<!-- Svg Vector Icons : http://www.onlinewebfonts.com/icon -->
<svg enable-background="new 0 0 1000 1000" version="1.1" viewBox="0 0 1e3 1e3" xml:space="preserve" xmlns="http://www.w3.org/2000/svg">
<metadata> Svg Vector Icons : http://www.onlinewebfonts.com/icon </metadata>
<path d="m90.352 6.2188c-44.446 0-80.227 36.088-80.227 80.916v832.5c0 44.828 35.781 80.916 80.227 80.916h825.41c44.446 0 80.227-36.088 80.227-80.916v-832.5c0-44.828-35.781-80.916-80.227-80.916h-825.41zm319.6 88.393h90.582 90.584c2.0279 0 3.9401 0.36447 5.7969 0.90039 2.4267 0.4359 4.7087 1.3313 6.4785 2.9551 7.8624 4.8123 14.397 13.145 20.896 19.141 12.828 12.082 25.05 20.14 30.498 35.779 70.691 32.036 164.95 69.59 167.63 159.62 0.24817 4.9634 0.49543 9.9266 0.57813 14.725 6.7834 132.61 13.566 265.21 20.35 397.82 2.2336 44.423 4.5496 88.763 6.7832 133.1 1.3236 25.479-25.23 23.328-42.52 23.328h-75.113v11.334c0 6.5352-5.4596 11.912-11.912 11.912h-278.85c-0.52548 0.07342-1.0477 0.16406-1.5898 0.16406h-160.32c-6.5352 0-11.912-5.4596-11.912-11.912v-11.332h-71.227c-16.379 0-48.144 3.9708-46.82-21.922 1.9026-36.729 3.7224-73.459 5.625-110.27 6.7006-131.12 13.401-262.15 20.102-393.19 2.4817-48.476 1.9852-98.028 42.934-132.44 37.01-31.141 86.974-49.692 129.75-71.6 0.2334-0.20737 0.47961-0.38772 0.72851-0.56836-5.1707 1.3944 5.8863-13.809 7.4258-15.271 8.3551-7.8588 16.629-15.634 24.984-23.41 5.6106-5.2366 10.654-11.537 16.896-15.371 1.8159-1.4968 4.0148-2.4112 6.3945-2.7617 1.6569-0.4311 3.3792-0.72852 5.248-0.72852zm12.307 23.658c0.42004 1.4062 0.83973 2.8125 1.2598 4.2188 23.328 77.843 46.739 155.77 69.984 233.7 1.5776 5.2117 3.1141 10.44 4.6758 15.664 26.958-84.497 54.31-168.86 80.471-253.58h-63.887-85.701-6.8027zm178.21 9.7676c-29.702 96.038-61.004 191.59-91.33 287.46-0.21579 0.69051-0.64755 1.1125-0.94141 1.7109-1.3252 10.729-6.2293 21.304-9.5644 31.875-9.8096 31.035-19.56 62.036-29.314 93.047 21.945-26.046 43.803-52.136 65.631-78.24 34.19-40.845 68.183-81.745 102.34-122.54-12.797-10.396-25.543-20.787-38.314-31.248-8.3551-6.8661-21.175-15.057-17.949-28.045 3.6399-14.642 16.131-17.868 28.457-23.162 13.571-5.846 27.142-11.691 40.713-17.537-5.4689-24.845-11.057-49.69-16.422-74.602-0.5682-1.2557-0.9225-2.6184-1.0176-4.041-4.1124-12.263-18.496-22.17-29.809-32.703-0.59584-0.5517-1.6535-1.3314-2.4805-1.9805zm-200 0.2207c-6.6874 6.2014-13.332 12.448-19.961 18.635-2.9781 2.8126-10.755 10.009-10.838 10.588-0.50253 2.2111-1.0022 4.5239-1.6504 6.7422-0.04034 0.26657-0.02844 0.51475-0.08594 0.78711-5.4812 25.506-10.99 51.004-16.928 76.396 14.935 6.3776 29.87 12.822 44.805 19.232 10.506 4.5498 24.57 9.3464 24.57 23.492 0 14.146-11.83 20.93-21.592 28.871-11.567 9.44-23.134 18.902-34.701 28.32 34.776 40.445 70.844 79.79 105.73 120.14 2.519-7.991 5.0377-15.992 7.5566-23.959 1.3094-4.0824 8.1219-18.643 8.332-23.186-0.00815-0.06279 0.01288-0.13592 0.00586-0.19922 2.5e-4 -0.24866 0.06739-0.59941 0.01758-0.77149-9.6787-32.841-19.523-65.6-29.367-98.441-18.582-62.215-37.29-124.38-55.896-186.65zm261.26 55.234c4.5396 20.605 9.1138 41.189 13.611 61.842 1.0754 4.7153-0.4975 11.25-5.4609 13.4-13.153 5.6252-26.306 11.335-39.459 17.043-6.6179 2.8126-13.154 5.7069-19.771 8.5195-3.1104 1.3479-3.6201 1.6021-4.0606 1.6836 18.589 15.238 37.179 30.476 55.848 45.635 5.3771 4.3016 3.8053 12.243 0 16.793-36.978 44.092-73.709 88.349-110.6 132.52-24.486 29.284-49.054 58.57-73.623 87.771-8.3156 9.8061-16.632 19.612-24.947 29.418-1.2032 9.2918-1.1934 18.84-1.1934 31.301v103.24 148.9h256.61v-11.332c0-0.28462 0.14567-0.5248 0.16601-0.80469v-368.97c0-15.304 23.74-15.304 23.74 0v357.86h94.219c-0.1872-0.37683-0.40777-0.80816-0.57422-3.9707-0.33089-6.7006-0.66129-13.401-0.99219-20.102-3.0608-61.299-6.2041-122.51-9.3476-183.81-5.6968-112.29-11.477-224.49-17.174-336.77-0.0132-0.18273-0.11105-0.30485-0.11719-0.49219-1.0754-37.226-22.005-69.984-55.508-86.529-27.559-13.617-53.989-29.15-81.361-43.146zm-322.3 0.54883c-24.136 12.513-48.196 24.953-72.334 37.469-38.963 20.185-63.283 47.979-65.6 94.057-6.287 122.27-12.49 244.45-18.777 366.72-2.8126 55.012-5.6268 110.11-8.4394 165.12-0.2142 3.7127-0.37299 7.3515-0.57031 10.994 0.37083-0.04907 0.01569-0.1582 1.4805-0.1582h17.621 75.031v-357.78c0-15.304 23.74-15.304 23.74 0v368.88c0.02055 0.2803 0.16601 0.52405 0.16601 0.8086v11.334h136.25v-282.83c0-2.6279 0.73164-5.299 1.7461-7.9785 2.715-15.116 8.6249-29.61 13.311-44.469 6.1058-19.41 12.253-38.778 18.381-58.166-40.291-47.092-82.477-92.569-122.61-139.79-3.888-4.4671-5.2943-12.491 0-16.793 17.951-14.559 43.678-29.119 57.906-47.318-4.3016 5.4598-55.176-21.093-65.6-25.561-4.9634-2.0681-6.6171-8.6871-5.459-13.402 4.7995-20.31 9.3146-40.71 13.764-61.127zm161.94 441c12.326 0 22.088 10.092 22.088 22.418 0 12.326-9.8447 22.088-22.088 22.088-12.326 0-22.418-9.762-22.418-22.088 0-12.326 10.092-22.418 22.418-22.418zm0 109.69c12.326 0 22.088 9.7612 22.088 22.418 0 12.326-9.8447 22.086-22.088 22.086-12.326 0-22.418-9.76-22.418-22.086 0-12.574 10.092-22.418 22.418-22.418z" fill="#f5df48" stroke-width="5.0362"/>
</svg>
